<svg xmlns="http://www.w3.org/2000/svg" viewBox="0 0 1200 800" width="1200" height="800" role="img" aria-label="A lighthouse on a cliff at dusk, its beam over the sea"><title>A lighthouse on a cliff at dusk, its beam over the sea</title><defs><clipPath id="frame"><rect width="1200" height="800"/></clipPath><linearGradient id="sky" x1="0" y1="0" x2="0" y2="1"><stop offset="0" stop-color="#241a4a"/><stop offset="0.38" stop-color="#76397a"/><stop offset="0.52" stop-color="#e7745b"/><stop offset="0.625" stop-color="#ffd28c"/><stop offset="1" stop-color="#ffd28c"/></linearGradient><linearGradient id="sea" x1="0" y1="0" x2="0" y2="1"><stop offset="0" stop-color="#f3a66d"/><stop offset="0.2" stop-color="#8a5a8f"/><stop offset="0.55" stop-color="#33457f"/><stop offset="1" stop-color="#141f4a"/></linearGradient><radialGradient id="sun"><stop offset="0" stop-color="#fff0c2" stop-opacity="0.95"/><stop offset="0.4" stop-color="#ffc37a" stop-opacity="0.45"/><stop offset="1" stop-color="#ffc37a" stop-opacity="0"/></radialGradient><filter id="soft" x="-30%" y="-30%" width="160%" height="160%"><feGaussianBlur stdDeviation="8"/></filter><linearGradient id="beam" x1="1" y1="0" x2="0" y2="0"><stop offset="0" stop-color="#fff3b0" stop-opacity="0.75"/><stop offset="1" stop-color="#fff3b0" stop-opacity="0"/></linearGradient><linearGradient id="rock" x1="0" y1="0" x2="0" y2="1"><stop offset="0" stop-color="#3a2c55"/><stop offset="1" stop-color="#191330"/></linearGradient></defs><g clip-path="url(#frame)"><rect width="1200" height="800" fill="url(#sky)"/><circle cx="740.6" cy="213.6" r="1.7" fill="#fff" opacity="0.63"/><circle cx="579.2" cy="172.3" r="1.1" fill="#fff" opacity="0.78"/><circle cx="873.6" cy="206" r="0.7" fill="#fff" opacity="0.89"/><circle cx="1173.1" cy="82.5" r="0.9" fill="#fff" opacity="0.47"/><circle cx="890.9" cy="40.6" r="1.1" fill="#fff" opacity="0.45"/><circle cx="237.8" cy="30.4" r="1.1" fill="#fff" opacity="0.63"/><circle cx="776.4" cy="76.4" r="1.7" fill="#fff" opacity="0.94"/><circle cx="66.1" cy="66.8" r="0.7" fill="#fff" opacity="0.81"/><circle cx="663.6" cy="92.9" r="0.9" fill="#fff" opacity="0.73"/><circle cx="186.3" cy="12.4" r="1.7" fill="#fff" opacity="0.45"/><circle cx="413.1" cy="229.9" r="0.9" fill="#fff" opacity="0.88"/><circle cx="95.3" cy="180.6" r="0.7" fill="#fff" opacity="0.83"/><circle cx="62.1" cy="114.8" r="1.7" fill="#fff" opacity="0.66"/><circle cx="308.4" cy="13.4" r="1.7" fill="#fff" opacity="0.39"/><circle cx="1106.2" cy="47.8" r="1.1" fill="#fff" opacity="0.72"/><circle cx="788.9" cy="113.8" r="1.7" fill="#fff" opacity="0.91"/><circle cx="208.2" cy="48.1" r="1.1" fill="#fff" opacity="0.36"/><circle cx="783" cy="15.8" r="1.7" fill="#fff" opacity="0.35"/><circle cx="151.5" cy="156.4" r="0.9" fill="#fff" opacity="0.83"/><circle cx="717.5" cy="222.5" r="0.9" fill="#fff" opacity="0.42"/><circle cx="1089.5" cy="149.8" r="1.7" fill="#fff" opacity="0.58"/><circle cx="215.1" cy="52.1" r="1.1" fill="#fff" opacity="0.39"/><circle cx="216.7" cy="228" r="1.1" fill="#fff" opacity="0.79"/><circle cx="1070.3" cy="227.9" r="0.7" fill="#fff" opacity="0.46"/><circle cx="676.6" cy="173.6" r="1.7" fill="#fff" opacity="0.53"/><circle cx="227.7" cy="190.2" r="1.7" fill="#fff" opacity="0.92"/><circle cx="1107.4" cy="161.1" r="0.9" fill="#fff" opacity="0.42"/><circle cx="664.6" cy="178.4" r="0.7" fill="#fff" opacity="0.34"/><circle cx="638.7" cy="103.6" r="0.7" fill="#fff" opacity="0.79"/><circle cx="517.7" cy="127.7" r="1.7" fill="#fff" opacity="0.39"/><circle cx="817" cy="95.9" r="0.9" fill="#fff" opacity="0.69"/><circle cx="441.4" cy="59.4" r="1.7" fill="#fff" opacity="0.66"/><circle cx="30.3" cy="144.6" r="1.1" fill="#fff" opacity="0.31"/><circle cx="315.4" cy="206.9" r="0.7" fill="#fff" opacity="0.72"/><circle cx="43.2" cy="7.6" r="1.7" fill="#fff" opacity="0.66"/><circle cx="982.3" cy="156.8" r="1.7" fill="#fff" opacity="0.78"/><circle cx="155.9" cy="123.8" r="1.7" fill="#fff" opacity="0.81"/><circle cx="799" cy="1" r="0.7" fill="#fff" opacity="0.57"/><circle cx="1102.2" cy="52" r="0.7" fill="#fff" opacity="0.56"/><circle cx="348.1" cy="32.6" r="1.7" fill="#fff" opacity="0.50"/><circle cx="571.6" cy="147.8" r="0.9" fill="#fff" opacity="0.75"/><circle cx="972.6" cy="121.4" r="1.7" fill="#fff" opacity="0.49"/><circle cx="252" cy="152.5" r="1.7" fill="#fff" opacity="0.53"/><circle cx="827.6" cy="58.8" r="1.7" fill="#fff" opacity="0.38"/><circle cx="291.1" cy="155.2" r="0.9" fill="#fff" opacity="0.65"/><circle cx="445.2" cy="166.1" r="1.7" fill="#fff" opacity="0.44"/><circle cx="208.2" cy="67.2" r="0.7" fill="#fff" opacity="0.52"/><circle cx="700.8" cy="209" r="1.7" fill="#fff" opacity="0.91"/><circle cx="83.8" cy="22.6" r="0.7" fill="#fff" opacity="0.37"/><circle cx="1030.4" cy="5.1" r="1.7" fill="#fff" opacity="0.50"/><circle cx="710.4" cy="182.1" r="0.7" fill="#fff" opacity="0.35"/><circle cx="559.7" cy="198.5" r="1.7" fill="#fff" opacity="0.70"/><circle cx="207.8" cy="192.5" r="1.1" fill="#fff" opacity="0.82"/><circle cx="1109.4" cy="228.8" r="0.7" fill="#fff" opacity="0.34"/><circle cx="394.6" cy="66.1" r="0.7" fill="#fff" opacity="0.31"/><circle cx="306.4" cy="140.4" r="1.7" fill="#fff" opacity="0.61"/><circle cx="1131.2" cy="96.5" r="1.7" fill="#fff" opacity="0.56"/><circle cx="794.5" cy="28.4" r="1.1" fill="#fff" opacity="0.69"/><circle cx="105.6" cy="227.2" r="0.9" fill="#fff" opacity="0.43"/><circle cx="577.5" cy="163.7" r="1.1" fill="#fff" opacity="0.90"/><circle cx="198.1" cy="84.6" r="0.9" fill="#fff" opacity="0.62"/><circle cx="210.6" cy="79.7" r="1.7" fill="#fff" opacity="0.33"/><circle cx="583.6" cy="49.4" r="0.9" fill="#fff" opacity="0.88"/><circle cx="46.3" cy="203.3" r="1.7" fill="#fff" opacity="0.37"/><circle cx="442.7" cy="43.8" r="0.9" fill="#fff" opacity="0.64"/><circle cx="1025.1" cy="33.1" r="1.1" fill="#fff" opacity="0.37"/><circle cx="399.1" cy="80.6" r="1.1" fill="#fff" opacity="0.38"/><circle cx="390.8" cy="78.2" r="0.7" fill="#fff" opacity="0.49"/><circle cx="136.6" cy="30.2" r="1.7" fill="#fff" opacity="0.72"/><circle cx="307.5" cy="38.5" r="1.1" fill="#fff" opacity="0.80"/><circle cx="300" cy="500" r="240" fill="url(#sun)"/><circle cx="300" cy="500" r="56" fill="#ffe7ae"/><g fill="#f29a7e" opacity="0.85" filter="url(#soft)"><ellipse cx="558.2" cy="332.4" rx="59" ry="21.9"/><ellipse cx="652.6" cy="316.9" rx="101.1" ry="22.4"/><ellipse cx="606" cy="320.3" rx="61.6" ry="30.9"/><ellipse cx="645.9" cy="330.3" rx="106.6" ry="30.9"/><ellipse cx="630.6" cy="331.7" rx="105.5" ry="30.9"/><ellipse cx="541.6" cy="327.4" rx="102.9" ry="20.6"/></g><g fill="#f29a7e" opacity="0.85" filter="url(#soft)"><ellipse cx="146.6" cy="251.3" rx="81" ry="22.6"/><ellipse cx="200.4" cy="257.5" rx="63.4" ry="22.6"/><ellipse cx="166.5" cy="254.1" rx="46.4" ry="22"/><ellipse cx="89.4" cy="260.1" rx="50.1" ry="23.5"/><ellipse cx="155.7" cy="252.6" rx="79.4" ry="21.6"/><ellipse cx="216.8" cy="255.8" rx="65.9" ry="20.6"/></g><g fill="#f29a7e" opacity="0.85" filter="url(#soft)"><ellipse cx="1014.6" cy="216.2" rx="75.6" ry="23.6"/><ellipse cx="930.2" cy="231.1" rx="63.3" ry="29.7"/><ellipse cx="996.1" cy="218.4" rx="66.3" ry="20.4"/><ellipse cx="917.4" cy="215.3" rx="93.1" ry="19.1"/><ellipse cx="979.1" cy="219.3" rx="63.7" ry="17.1"/><ellipse cx="1021.1" cy="220.4" rx="76.7" ry="23.3"/></g><rect y="500" width="1200" height="300" fill="url(#sea)"/><rect x="290.5" y="504" width="19.1" height="1.6" rx="2" fill="#ffe2a1" opacity="0.87"/><rect x="287.7" y="507.3" width="24.3" height="1.7" rx="2" fill="#ffe2a1" opacity="0.84"/><rect x="286.9" y="512.6" width="26.5" height="1.8" rx="2" fill="#ffe2a1" opacity="0.81"/><rect x="278.2" y="519.2" width="44.7" height="2" rx="2" fill="#ffe2a1" opacity="0.78"/><rect x="274.8" y="526.8" width="50.3" height="2.1" rx="2" fill="#ffe2a1" opacity="0.75"/><rect x="272.8" y="535.1" width="56.4" height="2.2" rx="2" fill="#ffe2a1" opacity="0.72"/><rect x="266.1" y="544.1" width="65.2" height="2.3" rx="2" fill="#ffe2a1" opacity="0.69"/><rect x="266.3" y="553.8" width="71.5" height="2.4" rx="2" fill="#ffe2a1" opacity="0.66"/><rect x="260.6" y="564" width="80.6" height="2.6" rx="2" fill="#ffe2a1" opacity="0.63"/><rect x="274" y="574.8" width="50.2" height="2.7" rx="2" fill="#ffe2a1" opacity="0.60"/><rect x="272.9" y="586.1" width="56.7" height="2.8" rx="2" fill="#ffe2a1" opacity="0.57"/><rect x="255.9" y="597.8" width="94.1" height="2.9" rx="2" fill="#ffe2a1" opacity="0.54"/><rect x="265.8" y="609.9" width="68.8" height="3" rx="2" fill="#ffe2a1" opacity="0.51"/><rect x="236.6" y="622.5" width="132.9" height="3.2" rx="2" fill="#ffe2a1" opacity="0.48"/><rect x="258.9" y="635.4" width="80.4" height="3.3" rx="2" fill="#ffe2a1" opacity="0.45"/><rect x="222.7" y="648.8" width="151.4" height="3.4" rx="2" fill="#ffe2a1" opacity="0.42"/><rect x="233.9" y="662.5" width="124.4" height="3.5" rx="2" fill="#ffe2a1" opacity="0.39"/><rect x="223.7" y="676.5" width="161.7" height="3.6" rx="2" fill="#ffe2a1" opacity="0.36"/><rect x="232.1" y="690.9" width="126.7" height="3.8" rx="2" fill="#ffe2a1" opacity="0.33"/><rect x="238.1" y="705.6" width="127.2" height="3.9" rx="2" fill="#ffe2a1" opacity="0.30"/><rect x="206.3" y="720.6" width="187.6" height="4" rx="2" fill="#ffe2a1" opacity="0.27"/><rect x="223.6" y="735.9" width="143.8" height="4.1" rx="2" fill="#ffe2a1" opacity="0.24"/><rect x="226.3" y="751.5" width="142.6" height="4.2" rx="2" fill="#ffe2a1" opacity="0.21"/><rect x="197.8" y="767.4" width="202.8" height="4.4" rx="2" fill="#ffe2a1" opacity="0.18"/><rect x="192.4" y="783.6" width="205.1" height="4.5" rx="2" fill="#ffe2a1" opacity="0.15"/><rect x="230.5" y="800" width="128.2" height="4.6" rx="2" fill="#ffe2a1" opacity="0.12"/><rect x="564.6" y="560" width="79.3" height="1.3" rx="1.5" fill="#ffffff" opacity="0.14"/><rect x="841.4" y="535.1" width="27.5" height="1.1" rx="1.5" fill="#ffffff" opacity="0.20"/><rect x="990.4" y="674.6" width="64.6" height="2.1" rx="1.5" fill="#ffffff" opacity="0.14"/><rect x="1125.5" y="746.2" width="37.7" height="2.6" rx="1.5" fill="#ffffff" opacity="0.17"/><rect x="142.1" y="760.4" width="184" height="2.7" rx="1.5" fill="#ffffff" opacity="0.09"/><rect x="849.4" y="591.3" width="34.2" height="1.5" rx="1.5" fill="#ffffff" opacity="0.18"/><rect x="374.3" y="684.2" width="142.2" height="2.2" rx="1.5" fill="#ffffff" opacity="0.20"/><rect x="1193.1" y="586.7" width="66.5" height="1.5" rx="1.5" fill="#ffffff" opacity="0.09"/><rect x="992.1" y="691.4" width="147.5" height="2.2" rx="1.5" fill="#ffffff" opacity="0.12"/><rect x="614.7" y="718.9" width="81.1" height="2.4" rx="1.5" fill="#ffffff" opacity="0.08"/><rect x="313.4" y="707.4" width="101.7" height="2.3" rx="1.5" fill="#ffffff" opacity="0.12"/><rect x="479.1" y="537.9" width="61.8" height="1.2" rx="1.5" fill="#ffffff" opacity="0.12"/><rect x="452.6" y="790.7" width="67.7" height="2.9" rx="1.5" fill="#ffffff" opacity="0.09"/><rect x="250.2" y="570.8" width="50.2" height="1.4" rx="1.5" fill="#ffffff" opacity="0.24"/><rect x="583.1" y="576.2" width="77.1" height="1.4" rx="1.5" fill="#ffffff" opacity="0.21"/><rect x="1082.2" y="748.2" width="167.3" height="2.6" rx="1.5" fill="#ffffff" opacity="0.21"/><rect x="530.2" y="549.7" width="33" height="1.2" rx="1.5" fill="#ffffff" opacity="0.25"/><rect x="82.7" y="695.4" width="140.3" height="2.3" rx="1.5" fill="#ffffff" opacity="0.26"/><rect x="441.4" y="776.8" width="180.8" height="2.8" rx="1.5" fill="#ffffff" opacity="0.14"/><rect x="0.7" y="671.7" width="114.6" height="2.1" rx="1.5" fill="#ffffff" opacity="0.18"/><rect x="577.4" y="765.1" width="183.6" height="2.8" rx="1.5" fill="#ffffff" opacity="0.08"/><rect x="723.1" y="742.9" width="113.8" height="2.6" rx="1.5" fill="#ffffff" opacity="0.13"/><rect x="41.5" y="723.3" width="118.2" height="2.5" rx="1.5" fill="#ffffff" opacity="0.21"/><rect x="623.9" y="792.1" width="104.4" height="2.9" rx="1.5" fill="#ffffff" opacity="0.13"/><rect x="878.1" y="536.9" width="68" height="1.1" rx="1.5" fill="#ffffff" opacity="0.11"/><rect x="898" y="794.4" width="146.6" height="3" rx="1.5" fill="#ffffff" opacity="0.15"/><rect x="479.5" y="624.6" width="43.8" height="1.8" rx="1.5" fill="#ffffff" opacity="0.22"/><rect x="310.7" y="556.5" width="21.5" height="1.3" rx="1.5" fill="#ffffff" opacity="0.14"/><rect x="969.9" y="773.2" width="189.3" height="2.8" rx="1.5" fill="#ffffff" opacity="0.13"/><rect x="727" y="529.5" width="64.7" height="1.1" rx="1.5" fill="#ffffff" opacity="0.26"/><rect x="779.5" y="734.4" width="44.3" height="2.5" rx="1.5" fill="#ffffff" opacity="0.09"/><rect x="834.2" y="538.5" width="45.5" height="1.2" rx="1.5" fill="#ffffff" opacity="0.16"/><rect x="138.5" y="764.9" width="125.9" height="2.8" rx="1.5" fill="#ffffff" opacity="0.09"/><rect x="986.9" y="774.4" width="144.3" height="2.8" rx="1.5" fill="#ffffff" opacity="0.14"/><rect x="1172.9" y="660.5" width="79.5" height="2" rx="1.5" fill="#ffffff" opacity="0.12"/><rect x="518.5" y="551.2" width="28.2" height="1.2" rx="1.5" fill="#ffffff" opacity="0.23"/><rect x="136.2" y="663.6" width="96.5" height="2" rx="1.5" fill="#ffffff" opacity="0.23"/><rect x="779.1" y="740.4" width="85.1" height="2.6" rx="1.5" fill="#ffffff" opacity="0.20"/><rect x="864.2" y="543" width="66.9" height="1.2" rx="1.5" fill="#ffffff" opacity="0.09"/><rect x="926.3" y="662.7" width="91.8" height="2" rx="1.5" fill="#ffffff" opacity="0.22"/><rect x="1141.5" y="594.6" width="60.3" height="1.6" rx="1.5" fill="#ffffff" opacity="0.22"/><rect x="167.2" y="622.6" width="98" height="1.8" rx="1.5" fill="#ffffff" opacity="0.17"/><rect x="591" y="727.2" width="79.8" height="2.5" rx="1.5" fill="#ffffff" opacity="0.21"/><rect x="1093.1" y="557.5" width="80.6" height="1.3" rx="1.5" fill="#ffffff" opacity="0.14"/><rect x="378.2" y="744.2" width="152.2" height="2.6" rx="1.5" fill="#ffffff" opacity="0.10"/><rect x="556.6" y="750.2" width="150.8" height="2.6" rx="1.5" fill="#ffffff" opacity="0.25"/><path d="M570,800 L570,803.3 L589.7,755.6 L609.4,711.4 L629.1,670.9 L648.8,632.3 L668.4,596.8 L688.1,566.7 L707.8,541 L727.5,520.1 L747.2,504.1 L766.9,497.4 L786.6,497 L806.2,495.3 L825.9,496.4 L845.6,495.9 L865.3,493.9 L885,493.4 L904.7,495.2 L924.4,495.7 L944.1,495.1 L963.8,495.7 L983.4,497 L1003.1,498.2 L1022.8,497.3 L1042.5,497.9 L1062.2,499.4 L1081.9,500.5 L1101.6,501.3 L1121.2,500.4 L1140.9,501.8 L1160.6,503.3 L1180.3,504.4 L1200,505.1 L1200,800 Z" fill="url(#rock)"/><polygon points="900,276.7865351439169 60,192.78653514391692 60,412.7865351439169" fill="url(#beam)" filter="url(#soft)"/><polygon points="870,494.8 881,284.8 919,284.8 930,494.8" fill="#f6efe4"/><polygon points="879,322.6 921,322.6 922.7,356.2 877.3,356.2" fill="#cf4458"/><polygon points="874.8,402.4 925.2,402.4 926.9,436 873.1,436" fill="#cf4458"/><rect x="875" y="278.8" width="50" height="7" fill="#221a36"/><rect x="884" y="250.8" width="32" height="28" fill="#2c2444"/><rect x="889" y="254.8" width="22" height="20" fill="#fff3b0"/><polygon points="879,250.8 900,226.8 921,250.8" fill="#cf4458"/><circle cx="900" cy="276.8" r="60" fill="url(#sun)"/><rect x="985" y="463.6" width="64" height="36" fill="#efe6d8"/><polygon points="979,463.6 1017,439.6 1055,463.6" fill="#7d2f45"/><rect x="997" y="473.6" width="12" height="12" fill="#ffd98e"/><rect x="1025" y="473.6" width="12" height="24" fill="#4b3349"/><path d="M560,760 q16,-12 32,0" fill="none" stroke="#ffffff" stroke-width="3" opacity="0.5" stroke-linecap="round"/><path d="M586,751 q16,-12 32,0" fill="none" stroke="#ffffff" stroke-width="3" opacity="0.5" stroke-linecap="round"/><path d="M612,742 q16,-12 32,0" fill="none" stroke="#ffffff" stroke-width="3" opacity="0.5" stroke-linecap="round"/><path d="M638,733 q16,-12 32,0" fill="none" stroke="#ffffff" stroke-width="3" opacity="0.5" stroke-linecap="round"/><path d="M664,724 q16,-12 32,0" fill="none" stroke="#ffffff" stroke-width="3" opacity="0.5" stroke-linecap="round"/></g></svg>
