<svg xmlns="http://www.w3.org/2000/svg" viewBox="0 0 1200 800" width="1200" height="800" role="img" aria-label="Two kayaks on a calm bay under the midnight sun"><title>Two kayaks on a calm bay under the midnight sun</title><defs><clipPath id="frame"><rect width="1200" height="800"/></clipPath><linearGradient id="sky" x1="0" y1="0" x2="0" y2="1"><stop offset="0" stop-color="#43527c"/><stop offset="0.3" stop-color="#c97c7a"/><stop offset="0.45" stop-color="#f7a868"/><stop offset="0.525" stop-color="#ffe09a"/><stop offset="1" stop-color="#ffe09a"/></linearGradient><linearGradient id="sea" x1="0" y1="0" x2="0" y2="1"><stop offset="0" stop-color="#ffd68c"/><stop offset="0.22" stop-color="#ea9069"/><stop offset="0.6" stop-color="#50507f"/><stop offset="1" stop-color="#232a55"/></linearGradient><radialGradient id="sun"><stop offset="0" stop-color="#fffbe0" stop-opacity="1"/><stop offset="0.3" stop-color="#ffe09a" stop-opacity="0.6"/><stop offset="1" stop-color="#ffe09a" stop-opacity="0"/></radialGradient><filter id="soft" x="-30%" y="-30%" width="160%" height="160%"><feGaussianBlur stdDeviation="7"/></filter></defs><g clip-path="url(#frame)"><rect width="1200" height="800" fill="url(#sky)"/><circle cx="800" cy="394" r="280" fill="url(#sun)"/><circle cx="800" cy="394" r="48" fill="#fffbe3"/><g fill="#f7b48d" opacity="0.85" filter="url(#soft)"><ellipse cx="225.5" cy="165.5" rx="69.8" ry="25.4"/><ellipse cx="340.4" cy="159.7" rx="81.1" ry="24.6"/><ellipse cx="399.6" cy="169.7" rx="78.5" ry="28.4"/><ellipse cx="368.9" cy="166" rx="109.1" ry="27.9"/><ellipse cx="249.5" cy="182.1" rx="62.5" ry="37.4"/><ellipse cx="264.7" cy="177.2" rx="87.3" ry="22.4"/></g><g fill="#f7b48d" opacity="0.85" filter="url(#soft)"><ellipse cx="946.3" cy="120.3" rx="53.5" ry="19.5"/><ellipse cx="981.6" cy="123.3" rx="81.5" ry="23.5"/><ellipse cx="965.5" cy="118.8" rx="79.7" ry="24.7"/><ellipse cx="1091.6" cy="121.5" rx="58" ry="30.3"/><ellipse cx="981.8" cy="140.2" rx="95.9" ry="24.4"/><ellipse cx="1056.9" cy="121.8" rx="88.2" ry="25.7"/></g><path d="M0,420 L0,420 L13.4,400 L26.9,405.6 L40.3,407 L53.8,406.4 L67.2,403.5 L80.6,400 L94.1,402.1 L107.5,402 L120.9,406.1 L134.4,408.4 L147.8,409.6 L161.2,411.1 L174.7,410.5 L188.1,409.5 L201.6,404.9 L215,404.2 L228.4,402.5 L241.9,402.1 L255.3,402.1 L268.8,401.7 L282.2,398.6 L295.6,395.6 L309.1,395.2 L322.5,390.6 L335.9,386 L349.4,384.1 L362.8,383.4 L376.2,382.1 L389.7,382.5 L403.1,383.2 L416.6,383.5 L430,420 L430,420 Z" fill="#5a4a78"/><path d="M520,420 L520,420 L525.6,413.6 L531.2,413.6 L536.9,413.9 L542.5,414.7 L548.1,413.4 L553.8,412.6 L559.4,411.7 L565,410.6 L570.6,410.2 L576.2,408.6 L581.9,406.4 L587.5,404.2 L593.1,404.2 L598.8,404.9 L604.4,403.9 L610,401.7 L615.6,400.8 L621.2,398.3 L626.9,398.2 L632.5,398.8 L638.1,398.4 L643.8,399 L649.4,398.8 L655,400.1 L660.6,401 L666.2,401 L671.9,401.4 L677.5,400.3 L683.1,401.6 L688.8,402.7 L694.4,405.6 L700,420 L700,420 Z" fill="#6d5a86"/><path d="M940,420 L940,420 L948.1,384.5 L956.2,386.8 L964.4,382.7 L972.5,383.4 L980.6,387.4 L988.8,386.3 L996.9,392.3 L1005,399 L1013.1,401 L1021.2,404.5 L1029.4,406.9 L1037.5,405 L1045.6,405.3 L1053.8,408 L1061.9,412.8 L1070,411.9 L1078.1,412.6 L1086.2,413.6 L1094.4,413.3 L1102.5,410.4 L1110.6,408.2 L1118.8,408.3 L1126.9,403.9 L1135,403 L1143.1,402.6 L1151.2,407.4 L1159.4,403.3 L1167.5,400.4 L1175.6,396.4 L1183.8,394.3 L1191.9,390 L1200,420 L1200,420 Z" fill="#4a3f6b"/><rect y="420" width="1200" height="380" fill="url(#sea)"/><rect x="791.3" y="424" width="17.4" height="1.6" rx="2" fill="#fff3c2" opacity="0.87"/><rect x="789.6" y="427.1" width="20.7" height="1.7" rx="2" fill="#fff3c2" opacity="0.85"/><rect x="786.5" y="432.1" width="27.7" height="1.8" rx="2" fill="#fff3c2" opacity="0.82"/><rect x="779.3" y="438.3" width="41.3" height="1.9" rx="2" fill="#fff3c2" opacity="0.80"/><rect x="781.8" y="445.4" width="36.4" height="2" rx="2" fill="#fff3c2" opacity="0.77"/><rect x="771.4" y="453.2" width="57.9" height="2.1" rx="2" fill="#fff3c2" opacity="0.75"/><rect x="771.1" y="461.7" width="56.2" height="2.2" rx="2" fill="#fff3c2" opacity="0.72"/><rect x="776.3" y="470.8" width="46.4" height="2.3" rx="2" fill="#fff3c2" opacity="0.70"/><rect x="775.6" y="480.4" width="52.5" height="2.4" rx="2" fill="#fff3c2" opacity="0.68"/><rect x="768.6" y="490.6" width="59.4" height="2.5" rx="2" fill="#fff3c2" opacity="0.65"/><rect x="770.2" y="501.1" width="55" height="2.6" rx="2" fill="#fff3c2" opacity="0.63"/><rect x="748" y="512.2" width="108.1" height="2.7" rx="2" fill="#fff3c2" opacity="0.60"/><rect x="767.8" y="523.6" width="62.4" height="2.8" rx="2" fill="#fff3c2" opacity="0.58"/><rect x="754" y="535.4" width="95.6" height="2.9" rx="2" fill="#fff3c2" opacity="0.56"/><rect x="735.4" y="547.6" width="124.6" height="3" rx="2" fill="#fff3c2" opacity="0.53"/><rect x="728.7" y="560.1" width="145.7" height="3.1" rx="2" fill="#fff3c2" opacity="0.51"/><rect x="750.1" y="573" width="94.3" height="3.1" rx="2" fill="#fff3c2" opacity="0.48"/><rect x="748.4" y="586.1" width="107.2" height="3.2" rx="2" fill="#fff3c2" opacity="0.46"/><rect x="717" y="599.7" width="168.2" height="3.3" rx="2" fill="#fff3c2" opacity="0.43"/><rect x="716.5" y="613.5" width="163.6" height="3.4" rx="2" fill="#fff3c2" opacity="0.41"/><rect x="731.7" y="627.6" width="135.4" height="3.5" rx="2" fill="#fff3c2" opacity="0.39"/><rect x="738.4" y="642" width="124" height="3.6" rx="2" fill="#fff3c2" opacity="0.36"/><rect x="740.3" y="656.6" width="127.5" height="3.7" rx="2" fill="#fff3c2" opacity="0.34"/><rect x="708.7" y="671.6" width="184.7" height="3.8" rx="2" fill="#fff3c2" opacity="0.31"/><rect x="739.2" y="686.8" width="113.3" height="3.9" rx="2" fill="#fff3c2" opacity="0.29"/><rect x="687.8" y="702.2" width="217.5" height="4" rx="2" fill="#fff3c2" opacity="0.27"/><rect x="710.5" y="717.9" width="188.8" height="4.1" rx="2" fill="#fff3c2" opacity="0.24"/><rect x="691.8" y="733.9" width="225.3" height="4.2" rx="2" fill="#fff3c2" opacity="0.22"/><rect x="731.5" y="750.1" width="138.7" height="4.3" rx="2" fill="#fff3c2" opacity="0.19"/><rect x="674.4" y="766.5" width="261.8" height="4.4" rx="2" fill="#fff3c2" opacity="0.17"/><rect x="691.5" y="783.1" width="207.5" height="4.5" rx="2" fill="#fff3c2" opacity="0.14"/><rect x="706.8" y="800" width="177.5" height="4.6" rx="2" fill="#fff3c2" opacity="0.12"/><rect x="807" y="581.5" width="45.6" height="1.8" rx="1.5" fill="#ffffff" opacity="0.24"/><rect x="729.7" y="472.4" width="21.8" height="1.2" rx="1.5" fill="#ffffff" opacity="0.19"/><rect x="791.5" y="630.4" width="69.8" height="2.1" rx="1.5" fill="#ffffff" opacity="0.13"/><rect x="376.7" y="478.7" width="70.6" height="1.2" rx="1.5" fill="#ffffff" opacity="0.14"/><rect x="42.7" y="500.6" width="49.6" height="1.4" rx="1.5" fill="#ffffff" opacity="0.18"/><rect x="655.5" y="621.1" width="101.4" height="2" rx="1.5" fill="#ffffff" opacity="0.25"/><rect x="542.7" y="590.4" width="114.4" height="1.9" rx="1.5" fill="#ffffff" opacity="0.16"/><rect x="1040.1" y="597" width="113.7" height="1.9" rx="1.5" fill="#ffffff" opacity="0.18"/><rect x="816.1" y="471.7" width="27.8" height="1.2" rx="1.5" fill="#ffffff" opacity="0.25"/><rect x="1175.6" y="629.8" width="56.4" height="2.1" rx="1.5" fill="#ffffff" opacity="0.24"/><rect x="853.8" y="543.5" width="31.9" height="1.6" rx="1.5" fill="#ffffff" opacity="0.19"/><rect x="201.5" y="764.3" width="148.3" height="2.8" rx="1.5" fill="#ffffff" opacity="0.20"/><rect x="188.6" y="496.3" width="84.4" height="1.3" rx="1.5" fill="#ffffff" opacity="0.14"/><rect x="430.2" y="709.1" width="78.4" height="2.5" rx="1.5" fill="#ffffff" opacity="0.14"/><rect x="326.5" y="695.7" width="47.3" height="2.4" rx="1.5" fill="#ffffff" opacity="0.13"/><rect x="605.6" y="693.9" width="142" height="2.4" rx="1.5" fill="#ffffff" opacity="0.19"/><rect x="697" y="654.7" width="101.9" height="2.2" rx="1.5" fill="#ffffff" opacity="0.20"/><rect x="520.1" y="728.2" width="131.7" height="2.6" rx="1.5" fill="#ffffff" opacity="0.10"/><rect x="161.6" y="791.9" width="113.8" height="3" rx="1.5" fill="#ffffff" opacity="0.15"/><rect x="710.6" y="443.9" width="26" height="1.1" rx="1.5" fill="#ffffff" opacity="0.19"/><rect x="818.9" y="670.6" width="59.9" height="2.3" rx="1.5" fill="#ffffff" opacity="0.18"/><rect x="997.6" y="443.1" width="52.5" height="1" rx="1.5" fill="#ffffff" opacity="0.11"/><rect x="80.2" y="571.2" width="42.1" height="1.7" rx="1.5" fill="#ffffff" opacity="0.15"/><rect x="150.1" y="509.1" width="54.7" height="1.4" rx="1.5" fill="#ffffff" opacity="0.17"/><rect x="670.2" y="621.2" width="79.7" height="2" rx="1.5" fill="#ffffff" opacity="0.09"/><rect x="375" y="747.4" width="174.7" height="2.7" rx="1.5" fill="#ffffff" opacity="0.23"/><rect x="234.5" y="603" width="44.3" height="1.9" rx="1.5" fill="#ffffff" opacity="0.20"/><rect x="507.9" y="530.1" width="49.7" height="1.5" rx="1.5" fill="#ffffff" opacity="0.13"/><rect x="514.1" y="752.8" width="74.3" height="2.7" rx="1.5" fill="#ffffff" opacity="0.13"/><rect x="707.7" y="771" width="64.3" height="2.8" rx="1.5" fill="#ffffff" opacity="0.22"/><rect x="417.3" y="496" width="75.6" height="1.3" rx="1.5" fill="#ffffff" opacity="0.18"/><rect x="321.3" y="480.5" width="71.3" height="1.3" rx="1.5" fill="#ffffff" opacity="0.14"/><rect x="254.8" y="624.4" width="35.6" height="2" rx="1.5" fill="#ffffff" opacity="0.10"/><rect x="1081" y="554.5" width="35.9" height="1.7" rx="1.5" fill="#ffffff" opacity="0.09"/><rect x="422.1" y="493.3" width="33.7" height="1.3" rx="1.5" fill="#ffffff" opacity="0.20"/><rect x="698.4" y="542.4" width="70.5" height="1.6" rx="1.5" fill="#ffffff" opacity="0.25"/><rect x="84.3" y="671.7" width="61.4" height="2.3" rx="1.5" fill="#ffffff" opacity="0.14"/><rect x="909.9" y="486.1" width="41.2" height="1.3" rx="1.5" fill="#ffffff" opacity="0.21"/><rect x="704.3" y="523.7" width="25.8" height="1.5" rx="1.5" fill="#ffffff" opacity="0.09"/><rect x="241.6" y="659.6" width="62.6" height="2.2" rx="1.5" fill="#ffffff" opacity="0.11"/><rect x="563.6" y="435.6" width="35.9" height="1" rx="1.5" fill="#ffffff" opacity="0.19"/><rect x="1042.4" y="583.3" width="110.5" height="1.8" rx="1.5" fill="#ffffff" opacity="0.21"/><rect x="778.2" y="758" width="128.2" height="2.8" rx="1.5" fill="#ffffff" opacity="0.26"/><rect x="907.5" y="701.6" width="144.2" height="2.5" rx="1.5" fill="#ffffff" opacity="0.15"/><rect x="1040.4" y="586.5" width="106.8" height="1.8" rx="1.5" fill="#ffffff" opacity="0.16"/><rect x="369.5" y="584.6" width="57.2" height="1.8" rx="1.5" fill="#ffffff" opacity="0.17"/><rect x="202.3" y="527" width="40.1" height="1.5" rx="1.5" fill="#ffffff" opacity="0.16"/><rect x="813.3" y="656.4" width="102" height="2.2" rx="1.5" fill="#ffffff" opacity="0.16"/><rect x="189.5" y="440.6" width="50.2" height="1" rx="1.5" fill="#ffffff" opacity="0.21"/><rect x="571" y="471" width="29.5" height="1.2" rx="1.5" fill="#ffffff" opacity="0.17"/><path d="M275.2,640 Q400,614.4 524.8,640 Q400,660.8 275.2,640 Z" fill="#d9463f"/><path d="M374.4,640 L385.6,585.6 L414.4,585.6 L422.4,640 Z" fill="#26304f"/><circle cx="400" cy="569.6" r="14.4" fill="#26304f"/><line x1="307.2" y1="566.4" x2="489.6" y2="646.4" stroke="#26304f" stroke-width="5.1" stroke-linecap="round"/><ellipse cx="304" cy="564.8" rx="14.4" ry="7.2" fill="#26304f" transform="rotate(24 304 564.8)"/><ellipse cx="400" cy="665.6" rx="118.4" ry="11.2" fill="#d9463f" opacity="0.22"/><path d="M578.1,540 Q660,523.2 741.9,540 Q660,553.6 578.1,540 Z" fill="#f0bb3c"/><path d="M643.2,540 L650.5,504.3 L669.5,504.3 L674.7,540 Z" fill="#26304f"/><circle cx="660" cy="493.8" r="9.5" fill="#26304f"/><line x1="599.1" y1="491.7" x2="718.8" y2="544.2" stroke="#26304f" stroke-width="3.4" stroke-linecap="round"/><ellipse cx="597" cy="490.6" rx="9.5" ry="4.7" fill="#26304f" transform="rotate(24 597 490.6)"/><ellipse cx="660" cy="556.8" rx="77.7" ry="7.4" fill="#f0bb3c" opacity="0.22"/><path d="M0,800 L0,757.3 L23.8,762.8 L47.5,762.7 L71.2,757.8 L95,755.1 L118.8,757.7 L142.5,766.8 L166.2,768.5 L190,773.4 L213.8,768.9 L237.5,759.7 L261.2,756.9 L285,755.6 L308.8,761.1 L332.5,760.6 L356.2,760.3 L380,758.9 L380,800 Z" fill="#1b1c3a"/></g></svg>
